<?xml version="1.0" encoding="UTF-8" standalone="no"?>
<!-- Created with Inkscape (http://www.inkscape.org/) -->

<svg
   xmlns:dc="http://purl.org/dc/elements/1.1/"
   xmlns:cc="http://creativecommons.org/ns#"
   xmlns:rdf="http://www.w3.org/1999/02/22-rdf-syntax-ns#"
   xmlns:svg="http://www.w3.org/2000/svg"
   xmlns="http://www.w3.org/2000/svg"
   xmlns:sodipodi="http://sodipodi.sourceforge.net/DTD/sodipodi-0.dtd"
   xmlns:inkscape="http://www.inkscape.org/namespaces/inkscape"
   width="209.83507mm"
   height="172.3125mm"
   viewBox="0 0 209.83507 172.3125"
   version="1.1"
   id="svg7122"
   inkscape:version="0.92.2 (5c3e80d, 2017-08-06)"
   sodipodi:docname="spaceman.svg">
  <defs
     id="defs7116" />
  <sodipodi:namedview
     id="base"
     pagecolor="#ffffff"
     bordercolor="#666666"
     borderopacity="1.0"
     inkscape:pageopacity="0.0"
     inkscape:pageshadow="2"
     inkscape:zoom="0.98994949"
     inkscape:cx="97.306839"
     inkscape:cy="213.85786"
     inkscape:document-units="mm"
     inkscape:current-layer="layer1"
     showgrid="false"
     inkscape:window-width="3000"
     inkscape:window-height="1875"
     inkscape:window-x="-13"
     inkscape:window-y="67"
     inkscape:window-maximized="1"
     fit-margin-top="0"
     fit-margin-left="0"
     fit-margin-right="0"
     fit-margin-bottom="0" />
  <metadata
     id="metadata7119">
    <rdf:RDF>
      <cc:Work
         rdf:about="">
        <dc:format>image/svg+xml</dc:format>
        <dc:type
           rdf:resource="http://purl.org/dc/dcmitype/StillImage" />
        <dc:title></dc:title>
      </cc:Work>
    </rdf:RDF>
  </metadata>
  <g
     inkscape:label="Layer 1"
     inkscape:groupmode="layer"
     id="layer1"
     transform="translate(-0.62346511,-57.162371)">
    <g
       transform="matrix(0.15072212,0,0,0.15072212,-30.950635,-75.190214)"
       style="display:inline;fill:#ffffff;fill-opacity:1;stroke:none"
       id="g7101">
      <path
         sodipodi:nodetypes="sssssssssssssss"
         style="fill:#ffffff;fill-opacity:1;stroke:none;stroke-width:1px;stroke-linecap:butt;stroke-linejoin:miter;stroke-opacity:1"
         d="m 590.06573,1033.6993 c -17.45831,-13.9719 9.04127,-31.1686 19.73727,-42.78697 20.344,-22.09831 45.70392,-38.64904 70.97656,-54.79011 27.31116,-17.44303 53.91163,-37.7362 85.02059,-46.98465 46.7016,-13.88401 96.66322,-12.17818 144.94236,-8.12274 29.43799,2.47279 57.98188,10.30284 86.26431,19.62823 21.46778,7.07844 40.85508,15.9407 57.00548,31.72837 13.6064,13.30076 37.1695,23.95677 37.4646,42.87685 0.3543,22.71661 -34.184,-9.66791 -47.121,-17.41634 -22.366,-13.39576 -44.0862,-28.6558 -69.08564,-35.32337 -24.07848,-6.42193 -49.03098,-9.85276 -74.43087,-5.68405 -37.02255,6.07626 -74.64292,9.18392 -111.48911,16.09117 -25.29861,4.74252 -48.73943,15.40024 -70.44995,28.57457 -36.72767,22.28701 -72.05519,46.95204 -107.41041,71.35454 -6.18734,4.2706 -15.82462,5.3358 -21.42419,0.8545 z"
         id="path3711"
         inkscape:connector-curvature="0" />
      <path
         style="fill:#ffffff;fill-opacity:1;stroke:none;stroke-width:1px;stroke-linecap:butt;stroke-linejoin:miter;stroke-opacity:1"
         d="m 632.00307,1048.4142 c -21.19887,29.6594 15.86765,66.1838 44.14457,53.7092 28.28553,-19.2681 56.28737,-41.8061 89.67034,-51.4913 27.45979,-6.7727 53.74341,-17.5232 82.67587,-16.4239 28.19823,-0.1415 57.25061,1.3561 83.77771,6.6777 27.68439,6.5726 53.90604,13.041 78.79314,27.4635 25.1486,16.5221 57.9974,29.0367 79.1071,43.222 10.6196,5.2387 58.6755,36.5266 23.7875,26.6442 -32.2658,-19.3873 -2.9543,2.2056 1.5258,15.7096 15.9011,64.3621 6.2747,142.2283 -4.6885,218.0304 -6.1501,39.2149 -30.2641,54.1024 -65.4393,60.4562 -32.3252,11.0846 -59.91135,28.9106 -97.3053,28.535 -38.68615,-3.9486 -77.74879,-3.3416 -116.66303,-3.4596 -32.04219,-1.3815 -64.5987,0.574 -95.87088,-5.3387 -14.09775,-6.2552 -62.9836,-36.924 -79.82644,-16.6499 -11.8076,13.7375 51.58542,23.4811 74.7175,33.884 30.74419,8.0606 62.65682,10.8668 92.6985,21.7305 28.78321,2.1978 38.97581,40.9041 70.47115,20.8407 35.28452,-5.0465 69.54032,-19.6322 102.63434,-31.68 31.60726,-9.9834 60.63876,-28.8838 94.93736,-25.9141 34.359,-3.7134 70.8926,-15.3231 77.2087,-54.9962 15.3929,-26.6622 -9.8398,-83.9549 27.3044,-88.0183 36.078,-8.8234 48.5506,-7.7729 79.4772,-29.1853 9.5265,-28.8942 -1.9936,-82.8016 -10.2659,-111.0199 -6.434,-22.9633 16.3526,-43.754 -13.3768,-70.4881 -15.8567,-7.8224 -72.4251,-14.8662 -52.3296,15.0795 14.2183,4.4366 13.9423,20.2599 16.1185,30.7229 4.0815,19.6226 0.1198,38.9123 -0.6996,59.1792 -0.1506,18.4574 1.6127,28.1936 -6.0809,47.9996 -4.4691,11.505 -13.5003,10.9322 -27.4661,1.4642 -6.6873,-29.2301 -1.5883,-60.4565 -2.9996,-90.4807 -0.8005,-40.3195 -2.7879,-89.9077 -39.7558,-115.9501 -7.7653,-18.3609 -19.3727,-29.1372 -20.8068,2.048 -29.3085,-27.7853 -61.7025,-34.5649 -94.4548,-53.3168 -35.73905,-17.7137 -82.64718,-21.80719 -115.45283,-24.6978 -38.95754,-1.57711 -66.98255,-5.11955 -105.14747,1.43758 -41.54858,8.26331 -57.4866,12.48579 -95.02014,33.25222 -15.40077,11.5819 -61.13213,27.0153 -75.40029,41.0245 z"
         id="path3732"
         inkscape:connector-curvature="0"
         sodipodi:nodetypes="ccccccccccccccccccccccccccscscccccccccc" />
      <path
         style="fill:#ffffff;fill-opacity:1;stroke:none;stroke-width:1px;stroke-linecap:butt;stroke-linejoin:miter;stroke-opacity:1"
         d="m 985.32031,1539.3418 c -49.71805,1.5945 -4.34299,54.3121 28.14689,57.781 33.459,5.4234 25.8639,54.9206 -6.0751,64.3406 -33.68747,10.4584 -77.6645,8.9855 -73.99952,-38.9458 6.10117,-47.0233 -47.50898,-42.2528 -79.08682,-44.5667 -52.91687,-2.461 -106.08258,-7.3279 -159.05202,-2.4518 -21.0296,27.4179 -2.829,77.6539 0.42333,112.6949 13.02879,59.4123 88.03989,15.0056 128.61411,20.8025 24.90049,6.393 122.0931,-0.552 122.0931,-0.552 l 5.03513,193.8869 -303.52116,9.0675 c 0,0 -12.83479,-123.3095 -13.38282,-184.8385 -0.35903,-37.3863 4.4004,-74.8015 4.02255,-112.0223 -11.62065,-55.38 -69.18107,-51.8887 -112.78727,-47.5957 -35.14074,1.483 -121.00509,-10.9331 -101.30694,46.8191 23.77053,28.3614 55.96525,50.0853 72.47741,84.6341 22.11415,28.2254 35.71277,70.5991 19.65884,98.0735 -41.77451,10.6156 -50.69517,-33.1769 -75.7266,-56.2319 -34.15262,-45.9422 -78.38005,-88.5837 -133.64365,-106.1691 -39.07516,17.2579 -58.41339,72.9516 -60.32829,116.8414 -6.94734,47.4548 -36.51763,89.0187 -34.78156,137.9172 -10.35111,32.8951 11.84799,32.8068 34.78334,33.9052 36.8608,33.8547 85.79654,65.7218 135.30886,33.8819 34.76407,-9.8312 68.79897,-32.14 77.44484,-69.5004 1.95551,-26.2953 30.9679,-16.4312 48.85368,-21.3983 27.83089,-1.6753 -0.37332,55.7105 14.13074,76.0547 -18.91738,38.4308 8.55544,67.1599 48.94158,57.7229 49.61255,-3.7487 97.98085,10.6256 146.38474,17.5849 64.03854,-10.8151 128.78207,0.6264 193.34112,-0.5228 76.31931,0.8228 152.70478,5.2294 228.93048,4.7829 65.3195,-2.9999 130.9781,-2.4786 196.1735,-2.7979 46.94,-24.9614 -61.3827,-69.623 -11.022,-76.3216 35.2464,3.5998 -12.382,-48.2161 -21.7344,-64.1875 -22.3346,-12.2828 -55.7194,-42.6554 -12.1381,-44.0858 -8.4699,-30.3431 -37.0316,-57.5322 -43.1711,-91.473 -3.0737,-45.9731 12.204,-105.2852 64.4433,-116.313 38.1875,-29.2751 -39.4346,-27.1931 -59.2318,-27.1634 -48.6187,9.315 -88.4677,-22.9539 -132.1292,-37.4648 -33.5589,-21.3728 -96.8717,34.8446 -107.3546,-8.0368 -3.5051,-13.8961 -17.03728,-14.4373 -28.73459,-14.1521 z"
         id="path6145"
         inkscape:connector-curvature="0"
         sodipodi:nodetypes="cccccccccccccccccccccccccccccccccccccccc" />
      <path
         style="fill:#ffffff;fill-opacity:1;stroke:none;stroke-width:1px;stroke-linecap:butt;stroke-linejoin:miter;stroke-opacity:1"
         d="m 1421.0872,1969.932 c -6.2363,-3.0032 -12.7156,-5.0459 -20.4349,-20.4422 -7.7193,-15.3963 -27.0914,-40.2226 -38.3976,-61.6452 -11.3062,-21.4226 -22.3112,-44.3249 -27.8344,-66.6486 -5.5232,-22.3237 -12.9545,-47.3984 -15.3116,-63.8886 -2.3571,-16.4902 -3.7118,-21.3993 -0.8697,-34.5053 2.8421,-13.106 6.8381,-31.1571 13.731,-44.285 6.8929,-13.1279 10.6818,-25.1677 24.0851,-35.6736 13.4033,-10.5059 42.1296,-20.4246 54.0716,-25.1658 11.942,-4.7412 4.6189,-13.4277 16.4786,-4.9488 11.8597,8.4789 30.7079,37.1562 43.0264,55.3106 12.3185,18.1544 22.7311,40.0972 32.2169,52.4269 9.4858,12.3297 15.708,14.1237 14.8683,25.505 -0.7253,9.8309 6.9591,16.6262 11.1975,24.8229 6.5533,12.6736 21.1977,16.4924 33.1594,21.9387 12.8645,5.8573 27.8899,7.6436 38.2864,17.88 9.7804,6.4404 -14.2084,11.0338 -18.5248,16.3205 -7.2289,8.8539 -21.3648,9.4349 -25.7052,20.9494 -0.7306,4.756 6.2776,9.1524 8.6308,13.7651 3.4488,4.4298 8.22,8.5228 5.3156,14.5709 -1.3839,8.7975 -6.0786,22.0096 -7.4625,30.8072 -11.707,6.0507 -16.6181,14.7118 -28.6598,19.8321 -11.5734,1.8442 -29.2044,0.5685 -37.6942,0.4844 -8.4898,-0.084 -10.3686,-5.8694 -15.7979,-4.5251 -5.4293,1.3443 -11.4481,1.5661 -14.6981,9.6241 -3.25,8.058 -11.7804,19.5437 -17.6842,25.1839 -5.9038,5.6402 -8.5167,9.3031 -13.8749,9.6406 -5.3582,0.3375 -5.8815,5.6691 -12.1178,2.6659 z"
         id="path6156"
         inkscape:connector-curvature="0"
         sodipodi:nodetypes="ssssssssssssssscscccccssssss" />
    </g>
  </g>
</svg>
